<svg id="Layer_1" xmlns="http://www.w3.org/2000/svg" xmlns:xlink="http://www.w3.org/1999/xlink" viewBox="0 0 400 300" style="enable-background:new 0 0 400 300"><style>.st0{fill:#fff}.st1{font-family:helveticaneue-light}.st2{font-size:24px}.st3{fill:#e6f5fa}.st4{fill:#d8eff8}.st5{fill:#ceebf5}.st6{fill:#ccc}.st7{fill:#a3daed}.st8{fill:#7bc8e4}.st9{fill:#59b6dc}.st10{opacity:.5;fill:#fff;enable-background:new}</style><title>Generic</title><g id="Layer_1_1_"><text transform="matrix(1 0 0 1 0.14 -6.87)" class="st0 st1 st2">generic</text><rect class="st3" width="400" height="300"/><path class="st4" d="M96.5 254.5c-37.1 8.4-72.3-5.6-96.5-19V278c113.1 14.8 163-24 187.5-52 23.5-26.9 24.8-57.6 31.9-88.4-47.2 47.7-65.9 103.9-122.9 116.9z"/><path class="st4" d="M246 80.5c-15.6 18.6-22.2 37.9-26.6 57.1 13.3-13.6 28.3-25.4 44.6-35.1 33.2-19.7 77.1-33.4 136-32v-44C349.2 26.4 284.2 35.2 246 80.5z"/><path class="st5" d="M0 0v235.5c24.2 13.4 59.4 27.4 96.5 19 57-13 75.7-69.2 122.9-116.9 4.4-19.2 11-38.6 26.6-57.1 38.2-45.3 103.2-54.1 154-54V0H0z"/><polygon class="st0" points="248.8,214.3 253.4,209.7 153.5,209.7 148.9,214.3"/><path class="st6" d="M251.3 117.7z"/><rect x="154.7" y="84.5" class="st7" width="98.5" height="124.2"/><polygon class="st8" points="146.6,215.4 154.7,208.7 154.7,84.5 146.6,91.2"/><path class="st8" d="M246.4 216.8H148c-.7.0-1.4-.6-1.4-1.3.0-.4.1-.7.4-1l6.8-6.8c.3-.3.6-.4 1-.4h98.5v2.7h-98l-4 4.1h97.9L246.4 216.8z"/><polygon class="st9" points="166.9,223.5 162.8,220.9 158.8,223.5 158.8,211.4 166.9,211.4"/><rect x="158.8" y="89.9" class="st10" width="1.4" height="113.4"/></g></svg>